<?xml version="1.0" standalone="no"?>
<!DOCTYPE svg PUBLIC "-//W3C//DTD SVG 1.1//EN" "http://www.w3.org/Graphics/SVG/1.1/DTD/svg11.dtd" >
<svg xmlns="http://www.w3.org/2000/svg" xmlns:xlink="http://www.w3.org/1999/xlink" version="1.1">
<metadata></metadata>
<defs>
<font id="dystopianlight" horiz-adv-x="646" >
<font-face units-per-em="1000" ascent="844" descent="-156" />
<missing-glyph horiz-adv-x="221" />
<glyph unicode="&#xfb01;" horiz-adv-x="463" d="M106 0h-32v700h209v-32h-177v-283h166v-32h-166v-353zM355 673q-8 8 -8 18q0 11 7.5 18.5t18.5 7.5t18.5 -7.5t7.5 -18.5q0 -10 -7.5 -18t-18.5 -8q-10 0 -18 8zM389 0h-32v546h32v-546z" />
<glyph unicode="&#xfb02;" horiz-adv-x="463" d="M106 0h-32v700h209v-32h-177v-283h166v-32h-166v-353zM389 0h-32v700h32v-700z" />
<glyph horiz-adv-x="0" />
<glyph horiz-adv-x="333" />
<glyph unicode=" "  horiz-adv-x="221" />
<glyph unicode="&#x09;" horiz-adv-x="221" />
<glyph unicode="&#xa0;" horiz-adv-x="221" />
<glyph unicode="!" horiz-adv-x="212" d="M122 146h-32v554h32v-554zM87.5 2.5q-7.5 7.5 -7.5 18.5t7.5 18.5t18.5 7.5t18.5 -7.5t7.5 -18.5q0 -10 -7.5 -18t-18.5 -8t-18.5 7.5z" />
<glyph unicode="&#x22;" horiz-adv-x="246" d="M56 536h-26l34 162h42zM166 536h-26l34 162h42z" />
<glyph unicode="#" horiz-adv-x="667" d="M154 34h-33l46 181h-157l8 32h157l51 200h-157l8 32h157l47 187h33l-47 -187h201l48 187h33l-48 -187h146l-8 -32h-146l-50 -200h145l-8 -32h-145l-46 -181h-33l46 181h-202zM259 447l-51 -200h202l50 200h-201z" />
<glyph unicode="$" horiz-adv-x="546" d="M257 -16q-59 3 -108 29t-77.5 68.5t-28.5 92.5h32q0 -43 26.5 -79t71.5 -57.5t99 -21.5t99 21.5t71 58.5t26 83q0 53 -26 85t-65 48.5t-105 34.5q-67 19 -109 37.5t-72 54t-30 94.5q0 47 26 86t70.5 64t99.5 30v59h32v-58q58 -2 106 -27t76.5 -66.5t28.5 -90.5h-32 q0 41 -25 76t-68 55.5t-94 20.5t-94.5 -19.5t-68.5 -54t-25 -75.5q0 -48 24 -76.5t60.5 -44t102.5 -34.5q70 -20 114 -39t75 -57.5t31 -102.5q0 -52 -28 -95.5t-76 -69.5t-107 -30v-57h-32v57z" />
<glyph unicode="%" horiz-adv-x="880" d="M123 373q-43 25 -68 67.5t-25 93.5q0 50 25 92.5t68 67.5t93 25q51 0 93.5 -25t67.5 -67.5t25 -92.5q0 -51 -25 -93.5t-67.5 -67.5t-93.5 -25q-50 0 -93 25zM230 1h-38l449 703h38zM293.5 400.5q35.5 20.5 56 56t20.5 77.5q0 41 -20.5 76.5t-56 56t-77.5 20.5 t-77.5 -20.5t-56 -56t-20.5 -76.5q0 -42 20.5 -77.5t56 -56t77.5 -20.5t77.5 20.5zM557.5 11.5q-44.5 26.5 -71 71t-26.5 97.5t26.5 98t71 71t97.5 26t98 -26t71 -71t26 -98t-26 -97.5t-71 -71t-98 -26.5t-97.5 26.5zM736.5 39q37.5 22 59.5 59.5t22 81.5t-22 81.5 t-59.5 59.5t-81.5 22t-81.5 -22t-59.5 -59.5t-22 -81.5t22 -81.5t59.5 -59.5t81.5 -22t81.5 22z" />
<glyph unicode="&#x26;" horiz-adv-x="607" d="M167 18.5q-54 32.5 -85.5 87.5t-31.5 120q1 80 49.5 140.5t124.5 81.5q-31 20 -49 52t-18 70q0 39 19.5 72.5t53 53t72.5 19.5q41 0 74.5 -20t52.5 -54.5t19 -76.5h-32q0 52 -33 85.5t-80 33.5t-80.5 -33t-33.5 -80t33 -80t82 -33h31v-32h-44q-57 0 -104.5 -26.5 t-75.5 -72t-29 -100.5q0 -56 27 -103.5t74 -76t103 -29.5q58 0 106 27.5t75.5 75.5t27.5 107h-102v32h224v-32h-90q0 -68 -32.5 -123.5t-87.5 -87t-121 -31.5q-65 1 -119 33.5z" />
<glyph unicode="'" horiz-adv-x="136" d="M56 536h-26l34 162h42z" />
<glyph unicode="(" horiz-adv-x="237" d="M150 -140q-54 82 -82 201t-28 250q0 129 28.5 248t81.5 201h36q-56 -82 -85 -201t-29 -249q0 -131 29.5 -249.5t85.5 -200.5h-37z" />
<glyph unicode=")" horiz-adv-x="237" d="M50 -140q56 82 85.5 200.5t29.5 249.5q0 130 -29 249t-85 201h36q53 -82 81.5 -201t28.5 -248q0 -131 -28 -250t-82 -201h-37z" />
<glyph unicode="*" horiz-adv-x="430" d="M231 286h-32l3 182l-155 -97l-17 27l160 95l-160 94l17 28l155 -98l-3 183h32l-3 -183l155 98l17 -28l-160 -94l160 -95l-17 -27l-155 97z" />
<glyph unicode="+" horiz-adv-x="496" d="M264 151h-32v192h-192v32h192v192h32v-192h192v-32h-192v-192z" />
<glyph unicode="," horiz-adv-x="136" d="M56 -114h-26l34 162h42z" />
<glyph unicode="-" horiz-adv-x="320" d="M290 251h-260v32h260v-32z" />
<glyph unicode="." horiz-adv-x="131" d="M47.5 2.5q-7.5 7.5 -7.5 18.5t7.5 18.5t18.5 7.5q10 0 17.5 -7.5t7.5 -18.5t-7.5 -18.5t-17.5 -7.5q-11 0 -18.5 7.5z" />
<glyph unicode="/" horiz-adv-x="343" d="M33 -156h-33l309 856h34z" />
<glyph unicode="0" horiz-adv-x="820" d="M226 34q-84 49 -133.5 133t-49.5 183q0 100 49 183.5t133.5 132.5t184.5 49t184 -49t133.5 -132.5t49.5 -183.5q0 -99 -49.5 -183t-133.5 -133t-184 -49t-184 49zM578 62q77 45 122 121.5t45 166.5q0 91 -45 167.5t-122 121t-168 44.5t-168 -44.5t-122 -121t-45 -167.5 q0 -90 45 -166.5t122 -121.5t168 -45t168 45z" />
<glyph unicode="1" horiz-adv-x="246" d="M158 0h-31v668h-112v32h143v-700z" />
<glyph unicode="2" horiz-adv-x="500" d="M32 0v45l289 278q50 48 74.5 91t24.5 95q0 47 -23.5 87t-63.5 63.5t-87 23.5t-87 -23.5t-63.5 -63.5t-23.5 -87h-32q0 56 28 103.5t75 75t103 27.5t103.5 -27.5t75 -75t27.5 -103.5q1 -60 -26 -108.5t-82 -100.5l-279 -263v-5h396v-32h-429z" />
<glyph unicode="3" horiz-adv-x="538" d="M143.5 17.5q-54.5 32.5 -86 86.5t-31.5 117h32q0 -55 28 -102t75.5 -74.5t104.5 -27.5q56 1 103 29t74 75.5t27 104.5q0 56 -28.5 102.5t-75.5 74t-102 27.5h-80l193 238h-287v32h353l-193 -235v-3h14q64 0 119 -32.5t87 -87.5t32 -120q0 -64 -32 -118.5t-87 -86.5 t-119 -32q-66 0 -120.5 32.5z" />
<glyph unicode="4" horiz-adv-x="521" d="M422 0h-32v148h-368v33l355 519h45v-520h71v-32h-71v-148zM387 663l-327 -483h330v483h-3z" />
<glyph unicode="5" horiz-adv-x="540" d="M143 17q-54 32 -85.5 86t-31.5 118h32q0 -55 27 -102t74.5 -74.5t104.5 -27.5q55 0 102.5 28t75.5 74.5t28 99.5q0 56 -23.5 103.5t-67 75.5t-98.5 28q-42 0 -78.5 -13t-58.5 -36h-54l90 323h259v-32h-234l-72 -257h6q28 24 61 35.5t81 11.5q65 0 115 -33t78 -88t28 -119 t-31 -117.5t-86 -84.5t-122 -31q-66 0 -120 32z" />
<glyph unicode="6" horiz-adv-x="565" d="M158.5 18q-56.5 33 -89.5 89t-33 121q0 72 39 133l214 339h38l-162 -257h6q49 31 111 31q67 0 123.5 -33.5t90 -90t33.5 -122.5q0 -65 -33.5 -121t-90 -89t-123.5 -33t-123.5 33zM389.5 45.5q49.5 28.5 78.5 77t29 105.5q0 58 -29 107t-78.5 78t-107.5 29t-107 -29 t-78 -78t-29 -107q0 -57 29 -105.5t78 -77t107 -28.5t107.5 28.5z" />
<glyph unicode="7" horiz-adv-x="432" d="M77 0h-36l323 666v2h-344v32h396z" />
<glyph unicode="8" horiz-adv-x="529" d="M149 15.5q-53 30.5 -84 83t-31 114.5q0 73 48.5 132.5t117.5 83.5q-36 16 -62 54t-26 79t20.5 76.5t56 56t76.5 20.5t76 -20.5t55.5 -56t20.5 -76.5q0 -42 -25.5 -79.5t-62.5 -53.5q44 -15 82 -47t61 -76t23 -93q0 -62 -31 -114.5t-83.5 -83t-115.5 -30.5t-116 30.5z M350 477.5q35 35.5 35 84.5q0 50 -35 85.5t-85 35.5t-85.5 -35.5t-35.5 -85.5t35.5 -85t85.5 -35t85 35.5zM364.5 43q45.5 26 72 71t26.5 99t-26.5 99t-72 71.5t-99.5 26.5t-100 -26.5t-72.5 -71.5t-26.5 -99t26.5 -99t72.5 -71t100 -26t99.5 26z" />
<glyph unicode="9" horiz-adv-x="565" d="M406.5 682q56.5 -33 89.5 -89t33 -121q0 -72 -39 -133l-214 -339h-38l162 257h-6q-49 -31 -111 -31q-67 0 -123.5 33.5t-90 90t-33.5 122.5q0 65 33.5 121t90 89t123.5 33t123.5 -33zM175.5 654.5q-49.5 -28.5 -78.5 -77t-29 -105.5q0 -58 29 -107t78.5 -78t107.5 -29 t107 29t78 78t29 107q0 57 -29 105.5t-78 77t-107 28.5t-107.5 -28.5z" />
<glyph unicode=":" horiz-adv-x="132" d="M47.5 508.5q-7.5 7.5 -7.5 18.5t8 18.5t18 7.5q11 0 18.5 -7.5t7.5 -18.5t-7.5 -18.5t-18.5 -7.5t-18.5 7.5zM48 5q-8 8 -8 18q0 11 8 18.5t18 7.5q11 0 18.5 -7.5t7.5 -18.5t-7.5 -18.5t-18.5 -7.5q-10 0 -18 8z" />
<glyph unicode=";" horiz-adv-x="159" d="M74.5 506.5q-7.5 7.5 -7.5 18.5t8 18.5t18 7.5q11 0 18.5 -7.5t7.5 -18.5t-7.5 -18.5t-18.5 -7.5t-18.5 7.5zM56 -116h-26l34 162h42z" />
<glyph unicode="&#x3c;" horiz-adv-x="371" d="M331 216v-36l-311 148v41l311 148v-35l-279 -133v-1z" />
<glyph unicode="=" horiz-adv-x="496" d="M456 437h-416v32h416v-32zM456 244h-416v32h416v-32z" />
<glyph unicode="&#x3e;" horiz-adv-x="371" d="M351 328l-311 -148v36l279 132v1l-279 133v35l311 -148v-41z" />
<glyph unicode="?" horiz-adv-x="460" d="M184 199q0 41 15 70t37 48t57 43q36 24 56.5 42.5t34.5 47.5t14 70q0 44 -23 81t-63 59t-87 22q-48 0 -88 -20t-62.5 -54.5t-22.5 -77.5h-32q0 52 27 94t73.5 66t104.5 24q56 0 103 -26t74.5 -70.5t27.5 -97.5q0 -48 -17 -82.5t-40.5 -56.5t-61.5 -47q-33 -23 -51.5 -39 t-31 -39.5t-12.5 -56.5v-53h-32v53zM181 3q-8 8 -8 18q0 11 8 18.5t18 7.5q11 0 18.5 -7.5t7.5 -18.5t-7.5 -18.5t-18.5 -7.5q-10 0 -18 8z" />
<glyph unicode="@" horiz-adv-x="822" d="M396 -11q-96 0 -178 49t-130 132.5t-48 182.5t48 183t130 133t178 49t178 -49t130 -133t48 -183v-207h-175v104h-4q-24 -50 -74 -78.5t-106 -28.5q-58 0 -106.5 28.5t-77.5 77.5t-29 107t29 106.5t77.5 77.5t106.5 29t107 -29t77.5 -77.5t28.5 -106.5v-178h114v175 q0 90 -43.5 166.5t-118 121.5t-162.5 45t-162.5 -45t-118 -121.5t-43.5 -166.5t43.5 -166.5t118 -121t162.5 -44.5v-32zM483.5 199.5q41.5 24.5 66 66t24.5 90.5t-24.5 90.5t-66 66t-90.5 24.5t-90.5 -24.5t-66 -66t-24.5 -90.5t24.5 -90.5t66 -66t90.5 -24.5t90.5 24.5z " />
<glyph unicode="A" horiz-adv-x="590" d="M57 0h-35l247 700h49l250 -700h-35l-53 147h-371zM119 178h350l-165 465l-11 31h-1q-7 -24 -10 -31z" />
<glyph unicode="B" horiz-adv-x="618" d="M92 0v700h272q49 0 91 -25t66.5 -67.5t24.5 -91.5q0 -54 -28.5 -98t-80.5 -64q60 -18 94 -64.5t34 -106.5q0 -50 -25 -92t-67 -66.5t-92 -24.5h-289zM364 367q40 0 74.5 20t55 54t20.5 75t-20.5 76t-55 55.5t-74.5 20.5h-241v-301h241zM381 31q41 0 76 20.5t55.5 55.5 t20.5 76q0 66 -44.5 109t-124.5 43h-241v-304h258z" />
<glyph unicode="C" horiz-adv-x="700" d="M230 34.5q-84 49.5 -133.5 134.5t-49.5 184q0 98 49.5 181.5t133.5 132t183 48.5q74 0 141 -29t118 -80l-21 -23q-47 47 -108.5 73t-129.5 26q-91 0 -167 -44t-121 -119.5t-45 -165.5q0 -91 45 -167.5t121 -121.5t167 -45q65 0 125 25.5t106 70.5l24 -23 q-51 -50 -117 -78.5t-138 -28.5q-99 0 -183 49.5z" />
<glyph unicode="D" horiz-adv-x="696" d="M92 0v700h206q96 0 176.5 -47t127.5 -127.5t47 -176.5q0 -95 -47 -175t-127.5 -127t-176.5 -47h-206zM298 31q87 0 160 42.5t116 115.5t43 160q0 86 -43 159.5t-116.5 116.5t-159.5 43h-174v-637h174z" />
<glyph unicode="E" horiz-adv-x="558" d="M529 0h-437v700h437v-32h-405v-302h348v-31h-348v-303h405v-32z" />
<glyph unicode="F" horiz-adv-x="549" d="M124 0h-32v700h437v-32h-405v-302h349v-31h-349v-335z" />
<glyph unicode="G" horiz-adv-x="748" d="M229 34q-84 49 -133 133t-49 183q0 100 49 183.5t133 132.5t183 49q76 0 147 -31t123 -88l-24 -20q-54 54 -114 81t-132 27q-90 0 -166.5 -45t-121 -121.5t-44.5 -167.5q0 -90 44.5 -166.5t121 -121.5t166.5 -45q149 0 245 102v216h-176v31h209v-259q-42 -50 -112.5 -86 t-165.5 -36q-99 0 -183 49z" />
<glyph unicode="H" horiz-adv-x="689" d="M125 0h-33v699h33v-334h441v334h31v-699h-31v334h-441v-334z" />
<glyph unicode="I" horiz-adv-x="217" d="M125 0h-33v699h33v-699z" />
<glyph unicode="J" horiz-adv-x="540" d="M131.5 13.5q-48.5 28.5 -75.5 77t-27 106.5h32q0 -48 23 -89.5t64 -65.5t94 -24q51 0 92.5 22.5t65.5 63.5t24 93v503h33v-503q0 -62 -29 -110.5t-78 -75t-108 -26.5q-62 0 -110.5 28.5z" />
<glyph unicode="K" horiz-adv-x="572" d="M123 0h-31v700h31v-345h198l195 345h36l-205 -360l195 -340h-34l-187 325h-198v-325z" />
<glyph unicode="L" horiz-adv-x="495" d="M477 -1h-385v701h30v-668h355v-33z" />
<glyph unicode="M" horiz-adv-x="814" d="M92 -1v701h55l259 -668h2l259 668h55v-701h-33v668h-2q-9 -32 -16 -49l-242 -618h-44l-242 618q-7 17 -16 49h-2v-668h-33z" />
<glyph unicode="N" horiz-adv-x="678" d="M92 0v700h40l386 -605l19 -35q4 -9 14 -27h2v665h33v-698h-42l-396 618q-14 23 -23 49h-2v-667h-31z" />
<glyph unicode="O" horiz-adv-x="824" d="M229 33q-84 49 -133 133t-49 183t49 182.5t133 132.5t183 49q100 0 183.5 -49t132.5 -132.5t49 -182.5t-49 -183t-132.5 -133t-183.5 -49q-99 0 -183 49zM579 61.5q77 44.5 122 121t45 166.5t-45 166.5t-122 121.5t-167 45t-166.5 -45t-121 -121.5t-44.5 -166.5 q0 -91 44.5 -167t120.5 -120.5t167 -44.5q90 0 167 44.5z" />
<glyph unicode="P" horiz-adv-x="565" d="M92 0v700h188q67 0 123 -32.5t89 -88.5t33 -123q0 -65 -33 -121t-89.5 -89t-122.5 -33h-155v-213h-33zM280 245q58 0 106.5 28.5t77 77t28.5 105.5q0 58 -28.5 107t-77 78t-106.5 29h-155v-425h155z" />
<glyph unicode="Q" horiz-adv-x="828" d="M229 34q-84 49 -133 133t-49 183q0 98 49 182t133 133.5t183 49.5q100 0 184 -49.5t133.5 -133.5t49.5 -182q0 -76 -29 -142t-82 -117l71 -92h-41l-52 69q-50 -39 -109.5 -61t-124.5 -22q-99 0 -183 49zM582.5 64.5q76.5 46.5 120 123t43.5 162.5q0 90 -44.5 167 t-121.5 122t-168 45t-167.5 -45t-121.5 -122t-45 -167t45 -166.5t121.5 -121t167.5 -44.5q94 0 170.5 46.5z" />
<glyph unicode="R" horiz-adv-x="566" d="M92 0v700h187q67 0 123 -32t89 -88t33 -123q0 -59 -27 -111t-74.5 -86t-105.5 -43l174 -217h-42l-170 213h-153v-213h-34zM279 245q58 0 106.5 28.5t77 77t28.5 106.5t-28.5 107t-77 77.5t-106.5 28.5h-153v-425h153z" />
<glyph unicode="S" horiz-adv-x="550" d="M156 10.5q-52 25.5 -82.5 69.5t-30.5 96h32q0 -43 26.5 -79t71 -57.5t97.5 -21.5q54 0 99 21.5t71.5 58t26.5 78.5q0 57 -26 89.5t-63 48t-108 35.5q-68 20 -107.5 37t-68.5 52.5t-29 94.5q0 49 29.5 91t80.5 66.5t110 24.5q60 0 110.5 -24.5t79.5 -66.5t29 -91h-32 q0 41 -25 75.5t-68 55t-94 20.5t-93.5 -20.5t-67.5 -55t-25 -75.5q0 -48 22.5 -76.5t58 -43.5t100.5 -34q70 -19 113.5 -37.5t74.5 -58t31 -107.5q0 -53 -30.5 -97t-83 -69t-115.5 -25q-62 0 -114 25.5z" />
<glyph unicode="T" horiz-adv-x="452" d="M243 -2h-33v672h-192v30h416v-30h-191v-672z" />
<glyph unicode="U" horiz-adv-x="658" d="M204.5 18.5q-57.5 33.5 -91 90.5t-33.5 124v467h32v-467q0 -59 29 -108.5t79 -78t110 -28.5q59 0 108.5 28.5t78.5 78t29 108.5v467h32v-467q0 -67 -33.5 -124t-90.5 -90.5t-124 -33.5q-68 0 -125.5 33.5z" />
<glyph unicode="V" horiz-adv-x="581" d="M272 0l-250 700h34l218 -615q7 -21 10.5 -32t5.5 -18h2q6 22 16 50l217 615h34l-250 -700h-37z" />
<glyph unicode="W" horiz-adv-x="910" d="M276 0h-42l-194 700h33l162 -591l19 -73h3l18 73l162 591h36l162 -591l19 -73h3l18 73l162 591h33l-194 -700h-42l-161 585l-16 67h-3l-18 -68z" />
<glyph unicode="X" horiz-adv-x="542" d="M61 0h-38l231 357l-219 343h38l198 -316l197 316h38l-218 -343l231 -357h-38l-210 330z" />
<glyph unicode="Y" horiz-adv-x="569" d="M268 0v287l-251 413h36l221 -361q5 -8 6.5 -13t2.5 -7h2l10 20l221 361h36l-252 -413v-287h-32z" />
<glyph unicode="Z" horiz-adv-x="516" d="M487 0h-458v41l417 627h-409v32h442v-41l-418 -627h426v-32z" />
<glyph unicode="[" horiz-adv-x="263" d="M223 -149h-143v902h143v-32h-111v-838h111v-32z" />
<glyph unicode="\" horiz-adv-x="343" d="M34 700l309 -856h-33l-310 856h34z" />
<glyph unicode="]" horiz-adv-x="263" d="M183 753v-902h-143v32h111v838h-111v32h143z" />
<glyph unicode="_" horiz-adv-x="560" d="M560 -49h-560v32h560v-32z" />
<glyph unicode="`" horiz-adv-x="138" d="M118 628h-26l-72 157h43z" />
<glyph unicode="a" horiz-adv-x="689" d="M176.5 24q-66.5 39 -105 105.5t-38.5 144.5q0 79 38.5 145t105 104.5t145.5 38.5q90 0 157 -48t101 -128h3v160h32v-545h-32v164h-3q-31 -84 -101 -132t-157 -48q-79 0 -145.5 39zM449.5 52.5q58.5 34.5 93 93.5t34.5 128q0 70 -34 129t-93 93t-128 34q-70 0 -129.5 -34 t-94.5 -93t-35 -129q0 -69 35 -128t94.5 -93.5t129.5 -34.5q69 0 127.5 34.5z" />
<glyph unicode="b" horiz-adv-x="689" d="M210 33q-70 48 -101 132h-3v-164h-32v699h32v-314h3q34 80 101 128t157 48q79 0 145.5 -38.5t105 -104.5t38.5 -145q0 -78 -38.5 -144.5t-105 -105.5t-145.5 -39q-87 0 -157 48zM496.5 52.5q59.5 34.5 94.5 93.5t35 128q0 70 -35 129t-94.5 93t-129.5 34q-69 0 -128 -34 t-93 -93t-34 -129q0 -69 34.5 -128t93 -93.5t127.5 -34.5q70 0 129.5 34.5z" />
<glyph unicode="c" horiz-adv-x="552" d="M178 20q-67 39 -106 105.5t-39 145.5t39 145.5t106 105.5t146 39q61 0 116 -24.5t96 -67.5l-23 -23q-36 39 -85 61t-104 22q-70 0 -129.5 -35t-94.5 -94t-35 -129t35 -129.5t94.5 -94t129.5 -34.5q52 0 99 20t83 55l23 -22q-40 -40 -93 -62.5t-112 -22.5q-79 0 -146 39z " />
<glyph unicode="d" horiz-adv-x="689" d="M176.5 24q-66.5 39 -105 105.5t-38.5 144.5q0 79 38.5 145t105 104.5t145.5 38.5q90 0 157 -48t101 -128h3v314h32v-699h-32v164h-3q-31 -84 -101 -132t-157 -48q-79 0 -145.5 39zM449.5 52.5q58.5 34.5 93 93.5t34.5 128q0 70 -34 129t-93 93t-128 34q-70 0 -129.5 -34 t-94.5 -93t-35 -129q0 -69 35 -128t94.5 -93.5t129.5 -34.5q69 0 127.5 34.5z" />
<glyph unicode="e" d="M177.5 25q-66.5 39 -105.5 105.5t-39 145.5t39 144t105.5 103t145.5 38t145.5 -38t105.5 -103t39 -144v-11h-548q3 -68 38 -124.5t93.5 -89.5t126.5 -33q77 0 140.5 42t94.5 110h35q-33 -82 -106 -133t-164 -51q-79 0 -145.5 39zM580 297q-5 65 -40.5 118t-92.5 83.5 t-124 30.5t-124 -30.5t-92.5 -83.5t-40.5 -118h514z" />
<glyph unicode="f" horiz-adv-x="283" d="M106 0h-32v700h209v-32h-177v-283h166v-32h-166v-353z" />
<glyph unicode="g" horiz-adv-x="635" d="M84 -156v138h32v-106h433v22l-47 12l-240 72q-117 37 -173 112.5t-56 169.5q0 78 38 142.5t104.5 102t147.5 37.5h242v-32h-97h-17h-5q69 -37 110 -103.5t41 -146.5q0 -71 -30.5 -129.5t-86 -96.5t-126.5 -48v-5l49 -14l178 -49v-78h-497zM440.5 47.5q57.5 33.5 91 91 t33.5 125.5q0 66 -32.5 123t-88 91t-121.5 36q-75 -2 -134 -35.5t-91.5 -90t-32.5 -124.5t34 -125.5t91.5 -91t124.5 -33.5q68 0 125.5 33.5z" />
<glyph unicode="h" horiz-adv-x="615" d="M106 700v-154h435v-546h-32v513h-403v-513h-32v700h32z" />
<glyph unicode="i" horiz-adv-x="180" d="M72 673q-8 8 -8 18q0 11 7.5 18.5t18.5 7.5t18.5 -7.5t7.5 -18.5q0 -10 -7.5 -18t-18.5 -8q-10 0 -18 8zM106 0h-32v546h32v-546z" />
<glyph unicode="j" horiz-adv-x="180" d="M72 673q-8 8 -8 18q0 11 7.5 18.5t18.5 7.5t18.5 -7.5t7.5 -18.5q0 -10 -7.5 -18t-18.5 -8q-10 0 -18 8zM106 -156h-150v32h118v671h32v-703z" />
<glyph unicode="k" horiz-adv-x="524" d="M106 0h-32v703h32v-392h168l150 235h36l-150 -235h167v-311h-32v279h-339v-279z" />
<glyph unicode="l" horiz-adv-x="180" d="M106 0h-32v700h32v-700z" />
<glyph unicode="m" horiz-adv-x="1050" d="M976 546v-546h-32v513h-403v-513h-32v513h-403v-513h-32v546h902z" />
<glyph unicode="n" horiz-adv-x="615" d="M106 0h-32v546h467v-546h-32v513h-403v-513z" />
<glyph unicode="o" d="M177.5 24q-66.5 39 -105.5 105t-39 143q0 79 39 144.5t105.5 104t145.5 38.5t145.5 -38.5t105.5 -104t39 -144.5q0 -77 -39 -143t-105.5 -105t-145.5 -39t-145.5 39zM452 52q59 35 94 93.5t35 126.5q0 70 -34.5 128.5t-94 92.5t-129.5 34t-129.5 -34t-94 -92.5 t-34.5 -128.5q0 -68 35 -126.5t94 -93.5t129 -35t129 35z" />
<glyph unicode="p" horiz-adv-x="690" d="M74 -156v701h33v-165h3q30 84 99.5 131.5t158.5 47.5q79 0 145 -38.5t105 -104.5t39 -144q0 -79 -39 -145.5t-105 -105t-145 -38.5q-91 0 -158 48t-100 128h-3v-315h-33zM497 49.5q59 34.5 93.5 93.5t34.5 129q0 69 -34.5 127.5t-93.5 92.5t-129 34q-69 0 -127.5 -34 t-93 -92.5t-34.5 -127.5q0 -70 34 -129t93 -93.5t128 -34.5q70 0 129 34.5z" />
<glyph unicode="q" horiz-adv-x="690" d="M616 -156h-33v315h-3q-33 -80 -100 -128t-158 -48q-79 0 -145 38.5t-105 105t-39 145.5q0 78 39 144t105 104.5t145 38.5q89 0 158.5 -47.5t99.5 -131.5h3v165h33v-701zM450 49.5q59 34.5 93 93.5t34 129q0 69 -34.5 127.5t-93 92.5t-127.5 34q-70 0 -129 -34 t-93.5 -92.5t-34.5 -127.5q0 -70 34.5 -129t93.5 -93.5t129 -34.5q69 0 128 34.5z" />
<glyph unicode="r" horiz-adv-x="403" d="M106 0h-32v546h327v-32h-295v-514z" />
<glyph unicode="s" horiz-adv-x="453" d="M122.5 6.5q-43.5 21.5 -67.5 56t-24 73.5h32q0 -30 20.5 -57.5t57 -44.5t82.5 -17q44 0 80.5 16t58 43.5t21.5 59.5q0 41 -21 66.5t-53.5 39t-85.5 26.5q-92 22 -137 55t-45 94q0 41 25.5 74t68 51.5t91.5 18.5q50 0 92.5 -19t67 -52t24.5 -73h-32q0 31 -20.5 56.5 t-55.5 40.5t-76 15q-39 0 -74.5 -14t-57 -39.5t-21.5 -58.5q0 -36 21 -58t51.5 -33.5t85.5 -26.5q62 -17 97 -31t61 -45.5t26 -86.5q0 -41 -26 -75.5t-70 -55t-96 -20.5q-57 0 -100.5 21.5z" />
<glyph unicode="t" horiz-adv-x="266" d="M244 0h-138v514h-103v32h103v154h32v-154h116v-32h-116v-482h106v-32z" />
<glyph unicode="u" horiz-adv-x="564" d="M170 11q-50 26 -79.5 76t-29.5 119v340h32v-340q0 -60 25 -102.5t68 -64.5t96 -22t96 22t68 64.5t25 102.5v340h32v-340q0 -69 -29.5 -119t-79.5 -76t-112 -26t-112 26z" />
<glyph unicode="v" horiz-adv-x="506" d="M270 0h-35l-225 547h34l209 -509l209 508h34z" />
<glyph unicode="w" horiz-adv-x="726" d="M229 0h-42l-172 545h34l159 -509l139 510h33l139 -510l160 510l32 -1l-171 -545h-42l-135 493z" />
<glyph unicode="x" horiz-adv-x="427" d="M47 0h-38l187 278l-178 268h39l156 -243l156 243h38l-178 -268l188 -278h-39l-165 253z" />
<glyph unicode="y" horiz-adv-x="515" d="M168 -156h-35l112 229l-235 473h35l218 -441l207 441h35z" />
<glyph unicode="z" horiz-adv-x="426" d="M411 0h-397v40l355 473h-339v32h372v-41l-354 -472h363v-32z" />
<glyph unicode="{" horiz-adv-x="254" d="M164 -155q-28 0 -47.5 19.5t-19.5 47.5v341q0 14 -10.5 24.5t-24.5 10.5h-32v32h30q14 0 24.5 10.5t10.5 24.5v341q0 28 19.5 47.5t47.5 19.5h32v-32h-32q-14 0 -24.5 -10t-10.5 -25v-341q0 -30 -23 -50q12 -9 18.5 -23t6.5 -29v-341q0 -14 10.5 -24.5t24.5 -10.5h30v-32 h-30z" />
<glyph unicode="|" horiz-adv-x="215" d="M123 -100h-31v900h31v-900z" />
<glyph unicode="}" horiz-adv-x="254" d="M60 -155v32h30q14 0 24.5 10.5t10.5 24.5v341q0 15 6.5 29t18.5 23q-23 20 -23 50v341q0 15 -10.5 25t-24.5 10h-32v32h32q28 0 47.5 -19.5t19.5 -47.5v-341q0 -14 10.5 -24.5t24.5 -10.5h30v-32h-32q-14 0 -24.5 -10.5t-10.5 -24.5v-341q0 -28 -19.5 -47.5t-47.5 -19.5 h-30z" />
<glyph unicode="&#xa1;" horiz-adv-x="212" d="M124.5 541.5q7.5 -7.5 7.5 -18.5q0 -10 -7.5 -18t-18.5 -8t-18.5 7.5t-7.5 18.5t7.5 18.5t18.5 7.5t18.5 -7.5zM90 -156v554h32v-554h-32z" />
<glyph unicode="&#xa2;" horiz-adv-x="497" d="M149 182q-41 27 -65 71t-24 95q0 55 26.5 100.5t72.5 72.5t100 27q43 0 78 -16l24 44h36l-31 -59q46 -29 71 -77h-37q-20 29 -49 49l-159 -294q33 -14 67 -14q44 0 81 20.5t60 55.5h37q-25 -49 -72.5 -78.5t-105.5 -29.5q-43 0 -82 17l-31 -56h-36zM322 504 q-28 12 -63 12q-45 0 -83.5 -22.5t-61 -61t-22.5 -84.5q0 -42 19 -78t53 -60z" />
<glyph unicode="&#xa3;" horiz-adv-x="477" d="M30 37q36 22 73.5 61t62.5 79.5t27 69.5h-124v32h120q-6 21 -19 38t-39 45q-27 30 -42.5 50.5t-27 49.5t-11.5 65q0 51 25.5 94t69 68.5t94.5 25.5h10q51 0 94 -25.5t68.5 -68.5t25.5 -94h-32q0 42 -21 78t-57 57t-78 21h-10q-42 0 -78 -21t-57.5 -57t-21.5 -78 q0 -44 19.5 -76.5t57.5 -74.5q29 -32 43.5 -52t19.5 -45h116v-32h-113q-3 -55 -49.5 -112.5t-98.5 -101.5v-1h344v-32h-391v37z" />
<glyph unicode="&#xa5;" horiz-adv-x="622" d="M326 0h-32v275h-264v32h264v64h-264v32h246l-207 297h39l202 -290l202 290h39l-207 -297h248v-32h-266v-64h266v-32h-266v-275z" />
<glyph unicode="&#xa6;" horiz-adv-x="215" d="M123 420h-31v380h31v-380zM123 -100h-31v380h31v-380z" />
<glyph unicode="&#xa7;" horiz-adv-x="545" d="M119 457.5q25 -27.5 62 -40.5t101 -27q72 -16 114.5 -32t72.5 -52.5t30 -99.5q0 -46 -25 -88q25 -36 25 -92q0 -53 -30.5 -97t-83 -69t-115.5 -25q-62 0 -114 25.5t-82.5 69.5t-30.5 96h32q0 -43 26.5 -79t71 -57.5t97.5 -21.5q54 0 99 21.5t71.5 58t26.5 78.5 q0 53 -26.5 83t-65.5 44t-106 29q-69 15 -110.5 30t-70 48.5t-28.5 92.5q0 48 28 88q-28 36 -28 92q0 49 29.5 91t80.5 66.5t110 24.5q60 0 110.5 -24.5t79.5 -66.5t29 -91h-32q0 41 -25 75.5t-68 55t-94 20.5t-93.5 -20.5t-67.5 -55t-25 -75.5q0 -48 25 -75.5zM119 277 q25 -28 62.5 -41t101.5 -27q61 -13 100.5 -26t67.5 -38q16 30 16 61q0 53 -26.5 83t-65.5 44t-105 28q-59 13 -95 24.5t-63 32.5q-18 -30 -18 -65q0 -48 25 -76z" />
<glyph unicode="&#xa8;" horiz-adv-x="212" d="M28 655q-8 8 -8 18q0 11 7.5 18.5t18.5 7.5t18.5 -7.5t7.5 -18.5t-7.5 -18.5t-18.5 -7.5q-10 0 -18 8zM148 655q-8 8 -8 18q0 11 7.5 18.5t18.5 7.5t18.5 -7.5t7.5 -18.5t-7.5 -18.5t-18.5 -7.5q-10 0 -18 8z" />
<glyph unicode="&#xa9;" horiz-adv-x="527" d="M151.5 299q-51.5 30 -81.5 81.5t-30 111.5t30 111.5t81.5 81.5t111.5 30q61 0 112 -30t81.5 -81.5t30.5 -111.5t-30.5 -111.5t-81.5 -81.5t-112 -30q-60 0 -111.5 30zM359 326q44 26 70 70t26 96t-26 96t-70 69.5t-96 25.5t-96 -25.5t-69.5 -69.5t-25.5 -96t25.5 -96 t69.5 -70t96 -26t96 26zM179 402q-36 36 -36 86q0 51 36 87t87 36q44 0 76 -27t40 -64h-35q-7 23 -29 40t-52 17q-37 0 -63 -25.5t-26 -63.5q0 -37 26 -63t63 -26q27 0 47 13.5t31 33.5h36q-12 -34 -42.5 -57t-71.5 -23q-51 0 -87 36z" />
<glyph unicode="&#xaa;" horiz-adv-x="453" d="M371 709h32v-351h-32v85q-22 -44 -63 -69.5t-92 -25.5q-50 0 -93 25t-68 67.5t-25 93.5q0 50 25 92.5t68 67.5t93 25q51 0 92 -25.5t63 -69.5v85zM293.5 400.5q35.5 20.5 56 56t20.5 77.5q0 41 -20.5 76.5t-56 56t-77.5 20.5t-77.5 -20.5t-56 -56t-20.5 -76.5 q0 -42 20.5 -77.5t56 -56t77.5 -20.5t77.5 20.5z" />
<glyph unicode="&#xab;" horiz-adv-x="345" d="M156 91h-36l-90 171l90 170h36l-90 -170zM305 91h-36l-90 171l90 170h36l-90 -170z" />
<glyph unicode="&#xad;" horiz-adv-x="320" d="M290 251h-260v32h260v-32z" />
<glyph unicode="&#xae;" horiz-adv-x="527" d="M151.5 299q-51.5 30 -81.5 81.5t-30 111.5t30 111.5t81.5 81.5t111.5 30q61 0 112 -30t81.5 -81.5t30.5 -111.5t-30.5 -111.5t-81.5 -81.5t-112 -30q-60 0 -111.5 30zM359 326q44 26 70 70t26 96t-26 96t-70 69.5t-96 25.5t-96 -25.5t-69.5 -69.5t-25.5 -96t25.5 -96 t69.5 -70t96 -26t96 26zM194 371v238h74q38 0 61 -20t23 -61q0 -35 -17.5 -54t-43.5 -24l50 -79h-35l-48 77h-33v-77h-31zM268 475q53 0 53 53q0 54 -53 54h-43v-107h43z" />
<glyph unicode="&#xaf;" horiz-adv-x="376" d="M356 660h-336v30h336v-30z" />
<glyph unicode="&#xb0;" horiz-adv-x="332" d="M76 496.5q-36 35.5 -36 90.5q0 54 36 89.5t90 35.5q55 0 90.5 -35.5t35.5 -89.5q0 -55 -35.5 -90.5t-90.5 -35.5q-54 0 -90 35.5zM233.5 519.5q26.5 26.5 26.5 67.5t-26.5 67t-67.5 26t-67.5 -26t-26.5 -67t26.5 -67.5t67.5 -26.5t67.5 26.5z" />
<glyph unicode="&#xb1;" horiz-adv-x="496" d="M264 171h-32v172h-192v32h192v172h32v-172h192v-32h-192v-172zM456 53h-416v32h416v-32z" />
<glyph unicode="&#xb2;" horiz-adv-x="315" d="M32 309v41l149 143q29 28 43 52t14 53q0 41 -21.5 62.5t-62.5 21.5t-62.5 -21.5t-21.5 -62.5h-33q0 54 33.5 85.5t83.5 31.5q51 0 84 -31t33 -86q0 -35 -15.5 -62.5t-46.5 -56.5l-143 -134v-3h210v-33h-244z" />
<glyph unicode="&#xb3;" horiz-adv-x="332" d="M278 361q-18 -31 -49 -49t-68 -18t-68 18t-49 49t-18 68h33q0 -42 28 -71.5t75 -29.5q47 1 74 30.5t27 72.5q-1 49 -27.5 77t-74.5 28h-70l113 132h-152v33h221l-120 -134v-1h8q60 0 97.5 -39.5t37.5 -97.5q0 -37 -18 -68z" />
<glyph unicode="&#xb4;" horiz-adv-x="138" d="M46 628h-26l55 157h43z" />
<glyph unicode="&#xb6;" horiz-adv-x="605" d="M310 -160v445h-65q-58 0 -104.5 25t-73.5 72.5t-27 112.5q0 99 57.5 152t147.5 53h98v-860h-33zM513 -160h-33v860h33v-860zM310 317v353h-65q-76 0 -124 -45t-48 -130q0 -84 48 -131t124 -47h65z" />
<glyph unicode="&#xb7;" horiz-adv-x="131" d="M47.5 302.5q-7.5 7.5 -7.5 18.5t7.5 18.5t18.5 7.5q10 0 17.5 -7.5t7.5 -18.5t-7.5 -18.5t-17.5 -7.5q-11 0 -18.5 7.5z" />
<glyph unicode="&#xb8;" horiz-adv-x="122" d="M20 -119q25 0 38.5 12.5t13.5 32.5q0 18 -11.5 29.5t-30.5 11.5v27q29 -1 50.5 -19.5t21.5 -48.5q0 -37 -22.5 -56.5t-59.5 -19.5v31z" />
<glyph unicode="&#xb9;" horiz-adv-x="199" d="M111 303h-33v365h-63v33h96v-398z" />
<glyph unicode="&#xba;" horiz-adv-x="432" d="M123 373q-43 25 -68 67.5t-25 93.5q0 50 25 92.5t68 67.5t93 25q51 0 93.5 -25t67.5 -67.5t25 -92.5q0 -51 -25 -93.5t-67.5 -67.5t-93.5 -25q-50 0 -93 25zM293.5 400.5q35.5 20.5 56 56t20.5 77.5q0 41 -20.5 76.5t-56 56t-77.5 20.5t-77.5 -20.5t-56 -56t-20.5 -76.5 q0 -42 20.5 -77.5t56 -56t77.5 -20.5t77.5 20.5z" />
<glyph unicode="&#xbb;" horiz-adv-x="345" d="M166 262l-90 -171h-36l90 171l-90 170h36zM315 262l-90 -171h-36l90 171l-90 170h36z" />
<glyph unicode="&#xbc;" horiz-adv-x="591" d="M63 1h-38l449 703h38zM126 303h-33v365h-63v33h96v-398zM521 0h-33v89h-224v34l201 275h56v-276h40v-33h-40v-89zM486 377l-186 -255h188v255h-2z" />
<glyph unicode="&#xbd;" horiz-adv-x="631" d="M63 1h-38l449 703h38zM126 303h-33v365h-63v33h96v-398zM357 1v41l149 143q29 28 43 52t14 53q0 41 -21.5 62.5t-62.5 21.5t-62.5 -21.5t-21.5 -62.5h-33q0 54 33.5 85.5t83.5 31.5q51 0 84 -31t33 -86q0 -35 -15.5 -62.5t-46.5 -56.5l-143 -134v-3h210v-33h-244z" />
<glyph unicode="&#xbe;" horiz-adv-x="701" d="M135 1l449 703h38l-449 -703h-38zM278 361q-18 -31 -49 -49t-68 -18t-68 18t-49 49t-18 68h33q0 -42 28 -71.5t75 -29.5q47 1 74 30.5t27 72.5q-1 49 -27.5 77t-74.5 28h-70l113 132h-152v33h221l-120 -134v-1h8q60 0 97.5 -39.5t37.5 -97.5q0 -37 -18 -68zM631 398v-276 h40v-33h-40v-89h-33v89h-224v34l201 275h56zM410 122h188v255h-2z" />
<glyph unicode="&#xbf;" horiz-adv-x="460" d="M279.5 543.5q7.5 -7.5 7.5 -18.5q0 -10 -7.5 -18t-18.5 -8t-18.5 7.5t-7.5 18.5t7.5 18.5t18.5 7.5t18.5 -7.5zM276 347q0 -41 -15 -70t-37 -48t-57 -43q-36 -24 -56.5 -42.5t-34.5 -47.5t-14 -70q0 -44 23 -81t63 -59t87 -22q48 0 88 20t62.5 54.5t22.5 77.5h32 q0 -52 -27 -94t-73.5 -66t-104.5 -24q-56 0 -103 26t-74.5 70.5t-27.5 97.5q0 48 17 82.5t40.5 56.5t61.5 47q33 23 51.5 39t31 39.5t12.5 56.5v53h32v-53z" />
<glyph unicode="&#xc0;" horiz-adv-x="590" d="M57 0h-35l247 700h49l250 -700h-35l-53 147h-371zM119 178h350l-165 465l-11 31h-1q-7 -24 -10 -31zM306 782h-26l-72 157h43z" />
<glyph unicode="&#xc1;" horiz-adv-x="590" d="M57 0h-35l247 700h49l250 -700h-35l-53 147h-371zM119 178h350l-165 465l-11 31h-1q-7 -24 -10 -31zM309 782h-26l55 157h43z" />
<glyph unicode="&#xc2;" horiz-adv-x="590" d="M57 0h-35l247 700h49l250 -700h-35l-53 147h-371zM119 178h350l-165 465l-11 31h-1q-7 -24 -10 -31zM248 792h-37l67 109h34l66 -109h-37l-46 81z" />
<glyph unicode="&#xc3;" horiz-adv-x="590" d="M57 0h-35l247 700h49l250 -700h-35l-53 147h-371zM119 178h350l-165 465l-11 31h-1q-7 -24 -10 -31zM320 810q-13 5 -34 16q-17 9 -29 13.5t-25 5.5q-12 0 -23.5 -6.5t-23.5 -24.5l-27 17q30 46 74 46q19 -1 34 -6.5t33 -15.5q15 -9 26.5 -13.5t24.5 -4.5q10 0 25.5 6.5 t30.5 27.5l26 -18q-20 -29 -43.5 -38.5t-38.5 -9.5q-17 0 -30 5z" />
<glyph unicode="&#xc4;" horiz-adv-x="590" d="M57 0h-35l247 700h49l250 -700h-35l-53 147h-371zM119 178h350l-165 465l-11 31h-1q-7 -24 -10 -31zM217 809q-8 8 -8 18q0 11 7.5 18.5t18.5 7.5t18.5 -7.5t7.5 -18.5t-7.5 -18.5t-18.5 -7.5q-10 0 -18 8zM337 809q-8 8 -8 18q0 11 7.5 18.5t18.5 7.5t18.5 -7.5 t7.5 -18.5t-7.5 -18.5t-18.5 -7.5q-10 0 -18 8z" />
<glyph unicode="&#xc5;" horiz-adv-x="590" d="M57 0h-35l247 700h49l250 -700h-35l-53 147h-371zM119 178h350l-165 465l-11 31h-1q-7 -24 -10 -31zM236.5 787.5q-24.5 24.5 -24.5 59.5q0 34 24.5 58.5t58.5 24.5t58.5 -24.5t24.5 -58.5q0 -35 -24.5 -59.5t-58.5 -24.5t-58.5 24.5zM331 810q15 15 15 37q0 21 -15 36 t-36 15t-36 -15t-15 -36q0 -22 15 -37t36 -15t36 15z" />
<glyph unicode="&#xc6;" horiz-adv-x="872" d="M59 0h-37l414 700h407v-32h-354l2 -299h280v-32h-279l2 -305h349v-32h-380l-2 179h-296zM455 668l-272 -457h278l-4 457h-2z" />
<glyph unicode="&#xc7;" horiz-adv-x="700" d="M668 92q-50 -49 -115 -77.5t-135 -29.5q38 -19 38 -60q0 -37 -22.5 -56.5t-59.5 -19.5v31q25 0 38.5 12.5t13.5 32.5q0 18 -11.5 29.5t-30.5 11.5v20q-93 7 -170 58.5t-122 133t-45 175.5q0 98 49.5 181.5t133.5 132t183 48.5q74 0 141 -29t118 -80l-21 -23 q-47 47 -108.5 73t-129.5 26q-91 0 -167 -44t-121 -119.5t-45 -165.5q0 -91 45 -167.5t121 -121.5t167 -45q65 0 125 25.5t106 70.5z" />
<glyph unicode="&#xc8;" horiz-adv-x="558" d="M529 0h-437v700h437v-32h-405v-302h348v-31h-348v-303h405v-32zM328 782h-26l-72 157h43z" />
<glyph unicode="&#xc9;" horiz-adv-x="558" d="M529 0h-437v700h437v-32h-405v-302h348v-31h-348v-303h405v-32zM331 782h-26l55 157h43z" />
<glyph unicode="&#xca;" horiz-adv-x="558" d="M529 0h-437v700h437v-32h-405v-302h348v-31h-348v-303h405v-32zM270 792h-37l67 109h34l66 -109h-37l-46 81z" />
<glyph unicode="&#xcb;" horiz-adv-x="558" d="M529 0h-437v700h437v-32h-405v-302h348v-31h-348v-303h405v-32zM239 809q-8 8 -8 18q0 11 7.5 18.5t18.5 7.5t18.5 -7.5t7.5 -18.5t-7.5 -18.5t-18.5 -7.5q-10 0 -18 8zM359 809q-8 8 -8 18q0 11 7.5 18.5t18.5 7.5t18.5 -7.5t7.5 -18.5t-7.5 -18.5t-18.5 -7.5 q-10 0 -18 8z" />
<glyph unicode="&#xcc;" horiz-adv-x="217" d="M125 0h-33v699h33v-699zM120 782h-26l-72 157h43z" />
<glyph unicode="&#xcd;" horiz-adv-x="217" d="M125 0h-33v699h33v-699zM123 782h-26l55 157h43z" />
<glyph unicode="&#xce;" horiz-adv-x="217" d="M125 0h-33v699h33v-699zM62 792h-37l67 109h34l66 -109h-37l-46 81z" />
<glyph unicode="&#xcf;" horiz-adv-x="217" d="M125 0h-33v699h33v-699zM31 809q-8 8 -8 18q0 11 7.5 18.5t18.5 7.5t18.5 -7.5t7.5 -18.5t-7.5 -18.5t-18.5 -7.5q-10 0 -18 8zM151 809q-8 8 -8 18q0 11 7.5 18.5t18.5 7.5t18.5 -7.5t7.5 -18.5t-7.5 -18.5t-18.5 -7.5q-10 0 -18 8z" />
<glyph unicode="&#xd0;" horiz-adv-x="696" d="M298 700q96 0 176.5 -47t127.5 -127.5t47 -176.5q0 -95 -47 -175t-127.5 -127t-176.5 -47h-206v700h206zM298 31q87 0 160 42.5t116 115.5t43 160q0 86 -43 159.5t-116.5 116.5t-159.5 43h-174v-294h227v-32h-227v-311h174z" />
<glyph unicode="&#xd1;" horiz-adv-x="678" d="M92 0v700h40l386 -605l19 -35q4 -9 14 -27h2v665h33v-698h-42l-396 618q-14 23 -23 49h-2v-667h-31zM368 810q-13 5 -34 16q-17 9 -29 13.5t-25 5.5q-12 0 -23.5 -6.5t-23.5 -24.5l-27 17q30 46 74 46q19 -1 34 -6.5t33 -15.5q15 -9 26.5 -13.5t24.5 -4.5q10 0 25.5 6.5 t30.5 27.5l26 -18q-20 -29 -43.5 -38.5t-38.5 -9.5q-17 0 -30 5z" />
<glyph unicode="&#xd2;" horiz-adv-x="824" d="M229 33q-84 49 -133 133t-49 183t49 182.5t133 132.5t183 49q100 0 183.5 -49t132.5 -132.5t49 -182.5t-49 -183t-132.5 -133t-183.5 -49q-99 0 -183 49zM579 61.5q77 44.5 122 121t45 166.5t-45 166.5t-122 121.5t-167 45t-166.5 -45t-121 -121.5t-44.5 -166.5 q0 -91 44.5 -167t120.5 -120.5t167 -44.5q90 0 167 44.5zM423 782h-26l-72 157h43z" />
<glyph unicode="&#xd3;" horiz-adv-x="824" d="M229 33q-84 49 -133 133t-49 183t49 182.5t133 132.5t183 49q100 0 183.5 -49t132.5 -132.5t49 -182.5t-49 -183t-132.5 -133t-183.5 -49q-99 0 -183 49zM579 61.5q77 44.5 122 121t45 166.5t-45 166.5t-122 121.5t-167 45t-166.5 -45t-121 -121.5t-44.5 -166.5 q0 -91 44.5 -167t120.5 -120.5t167 -44.5q90 0 167 44.5zM426 782h-26l55 157h43z" />
<glyph unicode="&#xd4;" horiz-adv-x="824" d="M229 33q-84 49 -133 133t-49 183t49 182.5t133 132.5t183 49q100 0 183.5 -49t132.5 -132.5t49 -182.5t-49 -183t-132.5 -133t-183.5 -49q-99 0 -183 49zM579 61.5q77 44.5 122 121t45 166.5t-45 166.5t-122 121.5t-167 45t-166.5 -45t-121 -121.5t-44.5 -166.5 q0 -91 44.5 -167t120.5 -120.5t167 -44.5q90 0 167 44.5zM365 792h-37l67 109h34l66 -109h-37l-46 81z" />
<glyph unicode="&#xd5;" horiz-adv-x="824" d="M229 33q-84 49 -133 133t-49 183t49 182.5t133 132.5t183 49q100 0 183.5 -49t132.5 -132.5t49 -182.5t-49 -183t-132.5 -133t-183.5 -49q-99 0 -183 49zM579 61.5q77 44.5 122 121t45 166.5t-45 166.5t-122 121.5t-167 45t-166.5 -45t-121 -121.5t-44.5 -166.5 q0 -91 44.5 -167t120.5 -120.5t167 -44.5q90 0 167 44.5zM437 810q-13 5 -34 16q-17 9 -29 13.5t-25 5.5q-12 0 -23.5 -6.5t-23.5 -24.5l-27 17q30 46 74 46q19 -1 34 -6.5t33 -15.5q15 -9 26.5 -13.5t24.5 -4.5q10 0 25.5 6.5t30.5 27.5l26 -18q-20 -29 -43.5 -38.5 t-38.5 -9.5q-17 0 -30 5z" />
<glyph unicode="&#xd6;" horiz-adv-x="824" d="M229 33q-84 49 -133 133t-49 183t49 182.5t133 132.5t183 49q100 0 183.5 -49t132.5 -132.5t49 -182.5t-49 -183t-132.5 -133t-183.5 -49q-99 0 -183 49zM579 61.5q77 44.5 122 121t45 166.5t-45 166.5t-122 121.5t-167 45t-166.5 -45t-121 -121.5t-44.5 -166.5 q0 -91 44.5 -167t120.5 -120.5t167 -44.5q90 0 167 44.5zM334 809q-8 8 -8 18q0 11 7.5 18.5t18.5 7.5t18.5 -7.5t7.5 -18.5t-7.5 -18.5t-18.5 -7.5q-10 0 -18 8zM454 809q-8 8 -8 18q0 11 7.5 18.5t18.5 7.5t18.5 -7.5t7.5 -18.5t-7.5 -18.5t-18.5 -7.5q-10 0 -18 8z" />
<glyph unicode="&#xd7;" horiz-adv-x="397" d="M198 347l-136 -135l-22 22l136 136l-136 136l22 22l136 -135l136 135l23 -22l-136 -136l136 -136l-23 -22z" />
<glyph unicode="&#xd8;" horiz-adv-x="824" d="M622 648q72 -50 113.5 -129t41.5 -170q0 -99 -49 -183t-132.5 -133t-183.5 -49q-98 0 -183 49l-31 -49l-28 15l33 51q-72 50 -114 129t-42 170q0 99 49 182.5t133 132.5t183 49q97 0 183 -48l32 50l28 -15zM117.5 195q37.5 -71 102.5 -117l358 560q-77 44 -166 44 q-90 0 -166.5 -45t-121 -121.5t-44.5 -166.5q0 -83 37.5 -154zM579 61.5q77 44.5 122 121t45 166.5q0 83 -38 154t-104 118l-357 -560q75 -44 165 -44t167 44.5z" />
<glyph unicode="&#xd9;" horiz-adv-x="658" d="M204.5 18.5q-57.5 33.5 -91 90.5t-33.5 124v467h32v-467q0 -59 29 -108.5t79 -78t110 -28.5q59 0 108.5 28.5t78.5 78t29 108.5v467h32v-467q0 -67 -33.5 -124t-90.5 -90.5t-124 -33.5q-68 0 -125.5 33.5zM340 782h-26l-72 157h43z" />
<glyph unicode="&#xda;" horiz-adv-x="658" d="M204.5 18.5q-57.5 33.5 -91 90.5t-33.5 124v467h32v-467q0 -59 29 -108.5t79 -78t110 -28.5q59 0 108.5 28.5t78.5 78t29 108.5v467h32v-467q0 -67 -33.5 -124t-90.5 -90.5t-124 -33.5q-68 0 -125.5 33.5zM343 782h-26l55 157h43z" />
<glyph unicode="&#xdb;" horiz-adv-x="658" d="M204.5 18.5q-57.5 33.5 -91 90.5t-33.5 124v467h32v-467q0 -59 29 -108.5t79 -78t110 -28.5q59 0 108.5 28.5t78.5 78t29 108.5v467h32v-467q0 -67 -33.5 -124t-90.5 -90.5t-124 -33.5q-68 0 -125.5 33.5zM282 792h-37l67 109h34l66 -109h-37l-46 81z" />
<glyph unicode="&#xdc;" horiz-adv-x="658" d="M204.5 18.5q-57.5 33.5 -91 90.5t-33.5 124v467h32v-467q0 -59 29 -108.5t79 -78t110 -28.5q59 0 108.5 28.5t78.5 78t29 108.5v467h32v-467q0 -67 -33.5 -124t-90.5 -90.5t-124 -33.5q-68 0 -125.5 33.5zM251 809q-8 8 -8 18q0 11 7.5 18.5t18.5 7.5t18.5 -7.5 t7.5 -18.5t-7.5 -18.5t-18.5 -7.5q-10 0 -18 8zM371 809q-8 8 -8 18q0 11 7.5 18.5t18.5 7.5t18.5 -7.5t7.5 -18.5t-7.5 -18.5t-18.5 -7.5q-10 0 -18 8z" />
<glyph unicode="&#xdd;" horiz-adv-x="569" d="M268 0v287l-251 413h36l221 -361q5 -8 6.5 -13t2.5 -7h2l10 20l221 361h36l-252 -413v-287h-32zM299 782h-26l55 157h43z" />
<glyph unicode="&#xde;" horiz-adv-x="565" d="M280 575q117 0 181 -56t64 -158q0 -100 -64.5 -156.5t-180.5 -56.5h-155v-148h-33v700h33v-125h155zM280 180q103 0 157.5 47t54.5 134q0 89 -54.5 136.5t-157.5 47.5h-155v-365h155z" />
<glyph unicode="&#xdf;" horiz-adv-x="496" d="M70 568q2 63 43.5 105t102.5 42q39 0 72.5 -19.5t53 -53t19.5 -72.5q0 -38 -18 -70t-49 -52q75 -21 118 -75.5t44 -134.5q0 -66 -28.5 -120t-79.5 -85.5t-116 -32.5v32q56 1 100 28.5t68 74t24 103.5q-2 84 -56 135.5t-141 51.5h-44v32h31q49 0 82 33t33 80t-33.5 80 t-80.5 33t-80 -33.5t-33 -85.5v-564h-32v568z" />
<glyph unicode="&#xe0;" horiz-adv-x="689" d="M176.5 24q-66.5 39 -105 105.5t-38.5 144.5q0 79 38.5 145t105 104.5t145.5 38.5q90 0 157 -48t101 -128h3v160h32v-545h-32v164h-3q-31 -84 -101 -132t-157 -48q-79 0 -145.5 39zM449.5 52.5q58.5 34.5 93 93.5t34.5 128q0 70 -34 129t-93 93t-128 34q-70 0 -129.5 -34 t-94.5 -93t-35 -129q0 -69 35 -128t94.5 -93.5t129.5 -34.5q69 0 127.5 34.5zM358 628h-26l-72 157h43z" />
<glyph unicode="&#xe1;" horiz-adv-x="689" d="M176.5 24q-66.5 39 -105 105.5t-38.5 144.5q0 79 38.5 145t105 104.5t145.5 38.5q90 0 157 -48t101 -128h3v160h32v-545h-32v164h-3q-31 -84 -101 -132t-157 -48q-79 0 -145.5 39zM449.5 52.5q58.5 34.5 93 93.5t34.5 128q0 70 -34 129t-93 93t-128 34q-70 0 -129.5 -34 t-94.5 -93t-35 -129q0 -69 35 -128t94.5 -93.5t129.5 -34.5q69 0 127.5 34.5zM361 628h-26l55 157h43z" />
<glyph unicode="&#xe2;" horiz-adv-x="689" d="M176.5 24q-66.5 39 -105 105.5t-38.5 144.5q0 79 38.5 145t105 104.5t145.5 38.5q90 0 157 -48t101 -128h3v160h32v-545h-32v164h-3q-31 -84 -101 -132t-157 -48q-79 0 -145.5 39zM449.5 52.5q58.5 34.5 93 93.5t34.5 128q0 70 -34 129t-93 93t-128 34q-70 0 -129.5 -34 t-94.5 -93t-35 -129q0 -69 35 -128t94.5 -93.5t129.5 -34.5q69 0 127.5 34.5zM300 638h-37l67 109h34l66 -109h-37l-46 81z" />
<glyph unicode="&#xe3;" horiz-adv-x="689" d="M176.5 24q-66.5 39 -105 105.5t-38.5 144.5q0 79 38.5 145t105 104.5t145.5 38.5q90 0 157 -48t101 -128h3v160h32v-545h-32v164h-3q-31 -84 -101 -132t-157 -48q-79 0 -145.5 39zM449.5 52.5q58.5 34.5 93 93.5t34.5 128q0 70 -34 129t-93 93t-128 34q-70 0 -129.5 -34 t-94.5 -93t-35 -129q0 -69 35 -128t94.5 -93.5t129.5 -34.5q69 0 127.5 34.5zM372 656q-13 5 -34 16q-17 9 -29 13.5t-25 5.5q-12 0 -23.5 -6.5t-23.5 -24.5l-27 17q30 46 74 46q19 -1 34 -6.5t33 -15.5q15 -9 26.5 -13.5t24.5 -4.5q10 0 25.5 6.5t30.5 27.5l26 -18 q-20 -29 -43.5 -38.5t-38.5 -9.5q-17 0 -30 5z" />
<glyph unicode="&#xe4;" horiz-adv-x="689" d="M176.5 24q-66.5 39 -105 105.5t-38.5 144.5q0 79 38.5 145t105 104.5t145.5 38.5q90 0 157 -48t101 -128h3v160h32v-545h-32v164h-3q-31 -84 -101 -132t-157 -48q-79 0 -145.5 39zM449.5 52.5q58.5 34.5 93 93.5t34.5 128q0 70 -34 129t-93 93t-128 34q-70 0 -129.5 -34 t-94.5 -93t-35 -129q0 -69 35 -128t94.5 -93.5t129.5 -34.5q69 0 127.5 34.5zM269 655q-8 8 -8 18q0 11 7.5 18.5t18.5 7.5t18.5 -7.5t7.5 -18.5t-7.5 -18.5t-18.5 -7.5q-10 0 -18 8zM389 655q-8 8 -8 18q0 11 7.5 18.5t18.5 7.5t18.5 -7.5t7.5 -18.5t-7.5 -18.5t-18.5 -7.5 q-10 0 -18 8z" />
<glyph unicode="&#xe5;" horiz-adv-x="689" d="M176.5 24q-66.5 39 -105 105.5t-38.5 144.5q0 79 38.5 145t105 104.5t145.5 38.5q90 0 157 -48t101 -128h3v160h32v-545h-32v164h-3q-31 -84 -101 -132t-157 -48q-79 0 -145.5 39zM449.5 52.5q58.5 34.5 93 93.5t34.5 128q0 70 -34 129t-93 93t-128 34q-70 0 -129.5 -34 t-94.5 -93t-35 -129q0 -69 35 -128t94.5 -93.5t129.5 -34.5q69 0 127.5 34.5zM288.5 633.5q-24.5 24.5 -24.5 59.5q0 34 24.5 58.5t58.5 24.5t58.5 -24.5t24.5 -58.5q0 -35 -24.5 -59.5t-58.5 -24.5t-58.5 24.5zM383 656q15 15 15 37q0 21 -15 36t-36 15t-36 -15t-15 -36 q0 -22 15 -37t36 -15t36 15z" />
<glyph unicode="&#xe6;" horiz-adv-x="1202" d="M1169 265h-548q3 -68 38 -124.5t93.5 -89.5t126.5 -33q77 0 140.5 42t94.5 110h35q-33 -82 -106 -133t-164 -51q-90 0 -161.5 50t-102.5 132v-167h-32v164h-3q-31 -84 -101 -132t-157 -48q-79 0 -145.5 39t-105 105.5t-38.5 144.5q0 79 38.5 145t105 104.5t145.5 38.5 q90 0 157 -48t101 -128h3v160h32v-163q31 80 102.5 129t161.5 49q79 0 145.5 -38t105.5 -103t39 -144v-11zM449.5 52.5q58.5 34.5 93 93.5t34.5 128q0 70 -34 129t-93 93t-128 34q-70 0 -129.5 -34t-94.5 -93t-35 -129q0 -69 35 -128t94.5 -93.5t129.5 -34.5 q69 0 127.5 34.5zM1137 297q-5 65 -40.5 118t-92.5 83.5t-124 30.5t-124 -30.5t-92.5 -83.5t-40.5 -118h514z" />
<glyph unicode="&#xe7;" horiz-adv-x="552" d="M529 66q-36 -36 -83.5 -58t-100.5 -26q32 -20 32 -57t-22.5 -56.5t-59.5 -19.5v31q25 0 38.5 12.5t13.5 32.5q0 18 -11.5 29.5t-30.5 11.5v16q-75 4 -137.5 44t-98.5 104.5t-36 140.5q0 79 39 145.5t106 105.5t146 39q61 0 116 -24.5t96 -67.5l-23 -23q-36 39 -85 61 t-104 22q-70 0 -129.5 -35t-94.5 -94t-35 -129t35 -129.5t94.5 -94t129.5 -34.5q52 0 99 20t83 55z" />
<glyph unicode="&#xe8;" d="M177.5 25q-66.5 39 -105.5 105.5t-39 145.5t39 144t105.5 103t145.5 38t145.5 -38t105.5 -103t39 -144v-11h-548q3 -68 38 -124.5t93.5 -89.5t126.5 -33q77 0 140.5 42t94.5 110h35q-33 -82 -106 -133t-164 -51q-79 0 -145.5 39zM580 297q-5 65 -40.5 118t-92.5 83.5 t-124 30.5t-124 -30.5t-92.5 -83.5t-40.5 -118h514zM331 628h-26l-72 157h43z" />
<glyph unicode="&#xe9;" d="M177.5 25q-66.5 39 -105.5 105.5t-39 145.5t39 144t105.5 103t145.5 38t145.5 -38t105.5 -103t39 -144v-11h-548q3 -68 38 -124.5t93.5 -89.5t126.5 -33q77 0 140.5 42t94.5 110h35q-33 -82 -106 -133t-164 -51q-79 0 -145.5 39zM580 297q-5 65 -40.5 118t-92.5 83.5 t-124 30.5t-124 -30.5t-92.5 -83.5t-40.5 -118h514zM334 628h-26l55 157h43z" />
<glyph unicode="&#xea;" d="M177.5 25q-66.5 39 -105.5 105.5t-39 145.5t39 144t105.5 103t145.5 38t145.5 -38t105.5 -103t39 -144v-11h-548q3 -68 38 -124.5t93.5 -89.5t126.5 -33q77 0 140.5 42t94.5 110h35q-33 -82 -106 -133t-164 -51q-79 0 -145.5 39zM580 297q-5 65 -40.5 118t-92.5 83.5 t-124 30.5t-124 -30.5t-92.5 -83.5t-40.5 -118h514zM273 638h-37l67 109h34l66 -109h-37l-46 81z" />
<glyph unicode="&#xeb;" d="M177.5 25q-66.5 39 -105.5 105.5t-39 145.5t39 144t105.5 103t145.5 38t145.5 -38t105.5 -103t39 -144v-11h-548q3 -68 38 -124.5t93.5 -89.5t126.5 -33q77 0 140.5 42t94.5 110h35q-33 -82 -106 -133t-164 -51q-79 0 -145.5 39zM580 297q-5 65 -40.5 118t-92.5 83.5 t-124 30.5t-124 -30.5t-92.5 -83.5t-40.5 -118h514zM242 655q-8 8 -8 18q0 11 7.5 18.5t18.5 7.5t18.5 -7.5t7.5 -18.5t-7.5 -18.5t-18.5 -7.5q-10 0 -18 8zM362 655q-8 8 -8 18q0 11 7.5 18.5t18.5 7.5t18.5 -7.5t7.5 -18.5t-7.5 -18.5t-18.5 -7.5q-10 0 -18 8z" />
<glyph unicode="&#xec;" horiz-adv-x="180" d="M106 0h-32v546h32v-546zM101 628h-26l-72 157h43z" />
<glyph unicode="&#xed;" horiz-adv-x="180" d="M106 0h-32v546h32v-546zM104 628h-26l55 157h43z" />
<glyph unicode="&#xee;" horiz-adv-x="180" d="M106 0h-32v546h32v-546zM43 638h-37l67 109h34l66 -109h-37l-46 81z" />
<glyph unicode="&#xef;" horiz-adv-x="180" d="M106 0h-32v546h32v-546zM12 655q-8 8 -8 18q0 11 7.5 18.5t18.5 7.5t18.5 -7.5t7.5 -18.5t-7.5 -18.5t-18.5 -7.5q-10 0 -18 8zM132 655q-8 8 -8 18q0 11 7.5 18.5t18.5 7.5t18.5 -7.5t7.5 -18.5t-7.5 -18.5t-18.5 -7.5q-10 0 -18 8z" />
<glyph unicode="&#xf0;" horiz-adv-x="565" d="M490 361q39 -61 39 -133q0 -65 -33 -121t-89.5 -89t-123.5 -33t-123.5 33t-90 89t-33.5 121q0 66 33.5 122.5t90 90t123.5 33.5q62 0 111 -31h6l-86 137l-92 -32l-18 26l93 32l-59 94h38l52 -83l92 32l18 -26l-93 -32zM390 45.5q49 28.5 78 77t29 105.5q0 58 -29 107 t-78 78t-107 29t-107.5 -29t-78.5 -78t-29 -107q0 -57 29 -105.5t78.5 -77t107.5 -28.5t107 28.5z" />
<glyph unicode="&#xf1;" horiz-adv-x="615" d="M106 0h-32v546h467v-546h-32v513h-403v-513zM476 660h-336v30h336v-30z" />
<glyph unicode="&#xf2;" d="M177.5 24q-66.5 39 -105.5 105t-39 143q0 79 39 144.5t105.5 104t145.5 38.5t145.5 -38.5t105.5 -104t39 -144.5q0 -77 -39 -143t-105.5 -105t-145.5 -39t-145.5 39zM452 52q59 35 94 93.5t35 126.5q0 70 -34.5 128.5t-94 92.5t-129.5 34t-129.5 -34t-94 -92.5 t-34.5 -128.5q0 -68 35 -126.5t94 -93.5t129 -35t129 35zM334 628h-26l-72 157h43z" />
<glyph unicode="&#xf3;" d="M177.5 24q-66.5 39 -105.5 105t-39 143q0 79 39 144.5t105.5 104t145.5 38.5t145.5 -38.5t105.5 -104t39 -144.5q0 -77 -39 -143t-105.5 -105t-145.5 -39t-145.5 39zM452 52q59 35 94 93.5t35 126.5q0 70 -34.5 128.5t-94 92.5t-129.5 34t-129.5 -34t-94 -92.5 t-34.5 -128.5q0 -68 35 -126.5t94 -93.5t129 -35t129 35zM337 628h-26l55 157h43z" />
<glyph unicode="&#xf4;" d="M177.5 24q-66.5 39 -105.5 105t-39 143q0 79 39 144.5t105.5 104t145.5 38.5t145.5 -38.5t105.5 -104t39 -144.5q0 -77 -39 -143t-105.5 -105t-145.5 -39t-145.5 39zM452 52q59 35 94 93.5t35 126.5q0 70 -34.5 128.5t-94 92.5t-129.5 34t-129.5 -34t-94 -92.5 t-34.5 -128.5q0 -68 35 -126.5t94 -93.5t129 -35t129 35zM276 638h-37l67 109h34l66 -109h-37l-46 81z" />
<glyph unicode="&#xf5;" d="M177.5 24q-66.5 39 -105.5 105t-39 143q0 79 39 144.5t105.5 104t145.5 38.5t145.5 -38.5t105.5 -104t39 -144.5q0 -77 -39 -143t-105.5 -105t-145.5 -39t-145.5 39zM452 52q59 35 94 93.5t35 126.5q0 70 -34.5 128.5t-94 92.5t-129.5 34t-129.5 -34t-94 -92.5 t-34.5 -128.5q0 -68 35 -126.5t94 -93.5t129 -35t129 35zM348 656q-13 5 -34 16q-17 9 -29 13.5t-25 5.5q-12 0 -23.5 -6.5t-23.5 -24.5l-27 17q30 46 74 46q19 -1 34 -6.5t33 -15.5q15 -9 26.5 -13.5t24.5 -4.5q10 0 25.5 6.5t30.5 27.5l26 -18q-20 -29 -43.5 -38.5 t-38.5 -9.5q-17 0 -30 5z" />
<glyph unicode="&#xf6;" d="M177.5 24q-66.5 39 -105.5 105t-39 143q0 79 39 144.5t105.5 104t145.5 38.5t145.5 -38.5t105.5 -104t39 -144.5q0 -77 -39 -143t-105.5 -105t-145.5 -39t-145.5 39zM452 52q59 35 94 93.5t35 126.5q0 70 -34.5 128.5t-94 92.5t-129.5 34t-129.5 -34t-94 -92.5 t-34.5 -128.5q0 -68 35 -126.5t94 -93.5t129 -35t129 35zM245 655q-8 8 -8 18q0 11 7.5 18.5t18.5 7.5t18.5 -7.5t7.5 -18.5t-7.5 -18.5t-18.5 -7.5q-10 0 -18 8zM365 655q-8 8 -8 18q0 11 7.5 18.5t18.5 7.5t18.5 -7.5t7.5 -18.5t-7.5 -18.5t-18.5 -7.5q-10 0 -18 8z" />
<glyph unicode="&#xf7;" horiz-adv-x="496" d="M230.5 518.5q-7.5 7.5 -7.5 18.5t7.5 18.5t18.5 7.5q10 0 17.5 -7.5t7.5 -18.5t-7.5 -18.5t-17.5 -7.5q-11 0 -18.5 7.5zM456 343h-416v32h416v-32zM230.5 148.5q-7.5 7.5 -7.5 18.5t7.5 18.5t18.5 7.5q10 0 17.5 -7.5t7.5 -18.5t-7.5 -18.5t-17.5 -7.5q-11 0 -18.5 7.5z " />
<glyph unicode="&#xf8;" d="M537 466q36 -39 56 -89t20 -105q0 -77 -39 -143t-105.5 -105t-145.5 -39q-54 0 -102.5 18.5t-87.5 52.5l-45 -45l-23 23l44 45q-36 39 -56 89t-20 104q0 79 39 144.5t105.5 104t145.5 38.5q54 0 103 -18.5t88 -52.5l45 45l22 -23zM82.5 180q17.5 -44 49.5 -78l360 363 q-34 30 -77.5 46t-91.5 16q-70 0 -129.5 -34t-94 -92.5t-34.5 -128.5q0 -48 17.5 -92zM452 52q59 35 94 93.5t35 126.5q0 49 -17.5 93t-48.5 78l-360 -364q36 -29 78.5 -45.5t89.5 -16.5q70 0 129 35z" />
<glyph unicode="&#xf9;" horiz-adv-x="564" d="M170 11q-50 26 -79.5 76t-29.5 119v340h32v-340q0 -60 25 -102.5t68 -64.5t96 -22t96 22t68 64.5t25 102.5v340h32v-340q0 -69 -29.5 -119t-79.5 -76t-112 -26t-112 26zM293 628h-26l-72 157h43z" />
<glyph unicode="&#xfa;" horiz-adv-x="564" d="M170 11q-50 26 -79.5 76t-29.5 119v340h32v-340q0 -60 25 -102.5t68 -64.5t96 -22t96 22t68 64.5t25 102.5v340h32v-340q0 -69 -29.5 -119t-79.5 -76t-112 -26t-112 26zM296 628h-26l55 157h43z" />
<glyph unicode="&#xfb;" horiz-adv-x="564" d="M170 11q-50 26 -79.5 76t-29.5 119v340h32v-340q0 -60 25 -102.5t68 -64.5t96 -22t96 22t68 64.5t25 102.5v340h32v-340q0 -69 -29.5 -119t-79.5 -76t-112 -26t-112 26zM235 638h-37l67 109h34l66 -109h-37l-46 81z" />
<glyph unicode="&#xfc;" horiz-adv-x="564" d="M170 11q-50 26 -79.5 76t-29.5 119v340h32v-340q0 -60 25 -102.5t68 -64.5t96 -22t96 22t68 64.5t25 102.5v340h32v-340q0 -69 -29.5 -119t-79.5 -76t-112 -26t-112 26zM204 655q-8 8 -8 18q0 11 7.5 18.5t18.5 7.5t18.5 -7.5t7.5 -18.5t-7.5 -18.5t-18.5 -7.5 q-10 0 -18 8zM324 655q-8 8 -8 18q0 11 7.5 18.5t18.5 7.5t18.5 -7.5t7.5 -18.5t-7.5 -18.5t-18.5 -7.5q-10 0 -18 8z" />
<glyph unicode="&#xfd;" horiz-adv-x="515" d="M168 -156h-35l112 229l-235 473h35l218 -441l207 441h35zM272 628h-26l55 157h43z" />
<glyph unicode="&#xfe;" horiz-adv-x="690" d="M74 -156v856h33v-320h3q30 84 99.5 131.5t158.5 47.5q79 0 145 -38.5t105 -104.5t39 -144q0 -79 -39 -145.5t-105 -105t-145 -38.5q-91 0 -158 48t-100 128h-3v-315h-33zM497 49.5q59 34.5 93.5 93.5t34.5 129q0 69 -34.5 127.5t-93.5 92.5t-129 34q-69 0 -127.5 -34 t-93 -92.5t-34.5 -127.5q0 -70 34 -129t93 -93.5t128 -34.5q70 0 129 34.5z" />
<glyph unicode="&#xff;" horiz-adv-x="515" d="M168 -156h-35l112 229l-235 473h35l218 -441l207 441h35zM180 655q-8 8 -8 18q0 11 7.5 18.5t18.5 7.5t18.5 -7.5t7.5 -18.5t-7.5 -18.5t-18.5 -7.5q-10 0 -18 8zM300 655q-8 8 -8 18q0 11 7.5 18.5t18.5 7.5t18.5 -7.5t7.5 -18.5t-7.5 -18.5t-18.5 -7.5q-10 0 -18 8z " />
<glyph unicode="&#x131;" horiz-adv-x="180" d="M106 0h-32v546h32v-546z" />
<glyph unicode="&#x152;" horiz-adv-x="1192" d="M1163 668h-405v-302h348v-31h-348v-303h405v-32h-437v203q-38 -99 -120.5 -159t-193.5 -60q-99 0 -183 49t-133 133t-49 183t49 182.5t133 132.5t183 49q111 0 193.5 -59.5t120.5 -158.5v205h437v-32zM573.5 61.5q71.5 44.5 112 120.5t40.5 167t-40.5 167.5t-112.5 121 t-161 44.5q-90 0 -166.5 -45t-121 -121.5t-44.5 -166.5q0 -91 44.5 -167t120.5 -120.5t167 -44.5q90 0 161.5 44.5z" />
<glyph unicode="&#x153;" horiz-adv-x="1200" d="M1167 265h-548q3 -68 38 -124.5t93.5 -89.5t126.5 -33q77 0 140.5 42t94.5 110h35q-33 -82 -106 -133t-164 -51q-64 0 -120.5 26t-97.5 72t-59 105q-18 -58 -59 -104.5t-97.5 -73t-120.5 -26.5q-79 0 -145.5 39t-105.5 105t-39 143q0 79 39 144.5t105.5 104t145.5 38.5 q63 0 119.5 -25.5t97.5 -70.5t59 -103q18 58 59 104t98 71.5t121 25.5q79 0 145.5 -38t105.5 -103t39 -144v-11zM1134 297q-5 65 -40.5 118t-92.5 83.5t-124 30.5t-124 -30.5t-92.5 -83.5t-40.5 -118h514zM452 52q59 35 94 93.5t35 126.5q0 70 -34.5 128.5t-94 92.5 t-129.5 34t-129.5 -34t-94 -92.5t-34.5 -128.5q0 -68 35 -126.5t94 -93.5t129 -35t129 35z" />
<glyph unicode="&#x178;" horiz-adv-x="569" d="M268 0v287l-251 413h36l221 -361q5 -8 6.5 -13t2.5 -7h2l10 20l221 361h36l-252 -413v-287h-32zM207 809q-8 8 -8 18q0 11 7.5 18.5t18.5 7.5t18.5 -7.5t7.5 -18.5t-7.5 -18.5t-18.5 -7.5q-10 0 -18 8zM327 809q-8 8 -8 18q0 11 7.5 18.5t18.5 7.5t18.5 -7.5t7.5 -18.5 t-7.5 -18.5t-18.5 -7.5q-10 0 -18 8z" />
<glyph unicode="&#x2c6;" horiz-adv-x="207" d="M57 638h-37l67 109h34l66 -109h-37l-46 81z" />
<glyph unicode="&#x2dc;" horiz-adv-x="314" d="M182 656q-13 5 -34 16q-17 9 -29 13.5t-25 5.5q-12 0 -23.5 -6.5t-23.5 -24.5l-27 17q30 46 74 46q19 -1 34 -6.5t33 -15.5q15 -9 26.5 -13.5t24.5 -4.5q10 0 25.5 6.5t30.5 27.5l26 -18q-20 -29 -43.5 -38.5t-38.5 -9.5q-17 0 -30 5z" />
<glyph unicode="&#x300;" horiz-adv-x="0" d="M-20 628h-26l-72 157h43z" />
<glyph unicode="&#x301;" horiz-adv-x="0" d="M-92 628h-26l55 157h43z" />
<glyph unicode="&#x302;" horiz-adv-x="0" d="M-150 638h-37l67 109h34l66 -109h-37l-46 81z" />
<glyph unicode="&#x303;" horiz-adv-x="0" d="M-132 656q-13 5 -34 16q-17 9 -29 13.5t-25 5.5q-12 0 -23.5 -6.5t-23.5 -24.5l-27 17q30 46 74 46q19 -1 34 -6.5t33 -15.5q15 -9 26.5 -13.5t24.5 -4.5q10 0 25.5 6.5t30.5 27.5l26 -18q-20 -29 -43.5 -38.5t-38.5 -9.5q-17 0 -30 5z" />
<glyph unicode="&#x304;" horiz-adv-x="0" d="M-20 660h-336v30h336v-30z" />
<glyph unicode="&#x308;" horiz-adv-x="0" d="M-184 655q-8 8 -8 18q0 11 7.5 18.5t18.5 7.5t18.5 -7.5t7.5 -18.5t-7.5 -18.5t-18.5 -7.5q-10 0 -18 8zM-64 655q-8 8 -8 18q0 11 7.5 18.5t18.5 7.5t18.5 -7.5t7.5 -18.5t-7.5 -18.5t-18.5 -7.5q-10 0 -18 8z" />
<glyph unicode="&#x30a;" horiz-adv-x="0" d="M-161.5 633.5q-24.5 24.5 -24.5 59.5q0 34 24.5 58.5t58.5 24.5t58.5 -24.5t24.5 -58.5q0 -35 -24.5 -59.5t-58.5 -24.5t-58.5 24.5zM-67 656q15 15 15 37q0 21 -15 36t-36 15t-36 -15t-15 -36q0 -22 15 -37t36 -15t36 15z" />
<glyph unicode="&#x2000;" horiz-adv-x="469" />
<glyph unicode="&#x2001;" horiz-adv-x="939" />
<glyph unicode="&#x2002;" horiz-adv-x="469" />
<glyph unicode="&#x2003;" horiz-adv-x="939" />
<glyph unicode="&#x2004;" horiz-adv-x="313" />
<glyph unicode="&#x2005;" horiz-adv-x="234" />
<glyph unicode="&#x2006;" horiz-adv-x="156" />
<glyph unicode="&#x2007;" horiz-adv-x="156" />
<glyph unicode="&#x2008;" horiz-adv-x="117" />
<glyph unicode="&#x2009;" horiz-adv-x="187" />
<glyph unicode="&#x200a;" horiz-adv-x="52" />
<glyph unicode="&#x2010;" horiz-adv-x="320" d="M290 251h-260v32h260v-32z" />
<glyph unicode="&#x2011;" horiz-adv-x="320" d="M290 251h-260v32h260v-32z" />
<glyph unicode="&#x2012;" horiz-adv-x="320" d="M290 251h-260v32h260v-32z" />
<glyph unicode="&#x2013;" horiz-adv-x="540" d="M500 251h-460v32h460v-32z" />
<glyph unicode="&#x2014;" horiz-adv-x="940" d="M900 251h-860v32h860v-32z" />
<glyph unicode="&#x2018;" horiz-adv-x="136" d="M79 610q13 -8 13 -23q0 -11 -7.5 -18.5t-18.5 -7.5q-10 0 -18 8t-8 18q0 3 2 9l33 112h21z" />
<glyph unicode="&#x2019;" horiz-adv-x="136" d="M57 659q-13 8 -13 23q0 11 7.5 18.5t18.5 7.5t18.5 -7.5t7.5 -18.5q0 -3 -2 -9l-33 -112h-21z" />
<glyph unicode="&#x201a;" horiz-adv-x="136" d="M57 1q-13 8 -13 23q0 11 7.5 18.5t18.5 7.5t18.5 -7.5t7.5 -18.5q0 -3 -2 -9l-33 -112h-21z" />
<glyph unicode="&#x201c;" horiz-adv-x="256" d="M79 610q13 -8 13 -23q0 -11 -7.5 -18.5t-18.5 -7.5q-10 0 -18 8t-8 18q0 3 2 9l33 112h21zM199 610q13 -8 13 -23q0 -11 -7.5 -18.5t-18.5 -7.5q-10 0 -18 8t-8 18q0 3 2 9l33 112h21z" />
<glyph unicode="&#x201d;" horiz-adv-x="256" d="M57 661q-13 8 -13 23q0 11 7.5 18.5t18.5 7.5t18.5 -7.5t7.5 -18.5q0 -3 -2 -9l-33 -112h-21zM177 661q-13 8 -13 23q0 11 7.5 18.5t18.5 7.5t18.5 -7.5t7.5 -18.5q0 -3 -2 -9l-33 -112h-21z" />
<glyph unicode="&#x201e;" horiz-adv-x="256" d="M57 1q-13 8 -13 23q0 11 7.5 18.5t18.5 7.5t18.5 -7.5t7.5 -18.5q0 -3 -2 -9l-33 -112h-21zM177 1q-13 8 -13 23q0 11 7.5 18.5t18.5 7.5t18.5 -7.5t7.5 -18.5q0 -3 -2 -9l-33 -112h-21z" />
<glyph unicode="&#x2022;" horiz-adv-x="207" d="M51.5 268q-21.5 22 -21.5 53t21.5 53t53.5 22q30 0 51 -22.5t21 -52.5q0 -31 -21 -53t-51 -22q-32 0 -53.5 22z" />
<glyph unicode="&#x2026;" horiz-adv-x="434" d="M350.5 2.5q-7.5 7.5 -7.5 18.5t7.5 18.5t18.5 7.5q10 0 17.5 -7.5t7.5 -18.5t-7.5 -18.5t-17.5 -7.5q-11 0 -18.5 7.5zM199.5 2.5q-7.5 7.5 -7.5 18.5t7.5 18.5t18.5 7.5q10 0 17.5 -7.5t7.5 -18.5t-7.5 -18.5t-17.5 -7.5q-11 0 -18.5 7.5zM47.5 2.5q-7.5 7.5 -7.5 18.5 t7.5 18.5t18.5 7.5q10 0 17.5 -7.5t7.5 -18.5t-7.5 -18.5t-17.5 -7.5q-11 0 -18.5 7.5z" />
<glyph unicode="&#x202f;" horiz-adv-x="187" />
<glyph unicode="&#x2039;" horiz-adv-x="196" d="M156 91h-36l-90 171l90 170h36l-90 -170z" />
<glyph unicode="&#x203a;" horiz-adv-x="196" d="M166 262l-90 -171h-36l90 171l-90 170h36z" />
<glyph unicode="&#x205f;" horiz-adv-x="234" />
<glyph unicode="&#x20ac;" horiz-adv-x="657" d="M289 24.5q-77 39.5 -128.5 108.5t-66.5 155h-74v32h70q-2 20 -2 31q0 16 1 23h-69v32h72q13 88 64.5 158.5t129.5 110.5t169 40q88 0 162 -38l-10 -31q-69 37 -152 37q-82 0 -152.5 -36t-117.5 -99t-60 -142h403l-11 -32h-396q-1 -7 -1 -23q0 -11 2 -31h377l-10 -32h-363 q15 -77 62 -138.5t117 -97t150 -35.5q66 0 127 25l10 -31q-64 -26 -137 -26q-89 0 -166 39.5z" />
<glyph unicode="&#x2122;" horiz-adv-x="750" d="M118 672h-108v28h244v-28h-106v-385h-30v385zM657 700h53v-413h-30v393h-1q-7 -22 -9 -28l-143 -364h-26l-142 364q-2 6 -9 28h-1v-393h-30v413h52l143 -369z" />
<glyph unicode="&#x25fc;" horiz-adv-x="545" d="M0 545h545v-545h-545v545z" />
</font>
</defs>
</svg>
